<svg xmlns="http://www.w3.org/2000/svg" width="98" height="116.81" viewBox="0 0 98 116.81"><defs><style>.a,.b,.c{fill:none;stroke:#fff;}.a,.b{stroke-miterlimit:10;}.b{stroke-width:2px;}.c{stroke-linecap:round;stroke-linejoin:round;stroke-dasharray:0 4;}</style></defs><title>Anel de ouro amarelo 18K com rubi</title><polygon class="a" points="62.86 8.58 49 0.58 35.14 8.58 35.14 34.57 49 42.57 62.86 34.57 62.86 8.58"/><polygon class="a" points="41.14 32.03 49 36.57 56.86 32.03 56.86 11.11 49 6.58 41.14 11.11 41.14 32.03"/><line class="a" x1="49" y1="6.58" x2="49" y2="0.58"/><line class="a" x1="35.14" y1="8.58" x2="41.14" y2="11.11"/><line class="a" x1="41.14" y1="32.03" x2="35.14" y2="34.57"/><line class="a" x1="49" y1="36.57" x2="49" y2="42.57"/><line class="a" x1="62.86" y1="34.57" x2="56.86" y2="32.04"/><line class="a" x1="56.86" y1="11.12" x2="62.86" y2="8.58"/><path class="b" d="M35.14,21.85a48,48,0,1,0,27.71,0"/><path class="b" d="M62.86,34.58a36,36,0,1,1-27.71,0"/><path class="c" d="M62.85,28.15a42,42,0,1,1-27.71,0"/><line class="a" x1="35.14" y1="8.58" x2="41.14" y2="21.58"/><line class="a" x1="35.14" y1="34.57" x2="41.14" y2="21.58"/><line class="a" x1="35.14" y1="8.58" x2="49" y2="6.58"/><line class="a" x1="62.86" y1="8.58" x2="56.86" y2="21.58"/><line class="a" x1="62.86" y1="34.57" x2="56.86" y2="21.58"/><line class="a" x1="62.86" y1="8.58" x2="49" y2="6.58"/><line class="a" x1="35.14" y1="34.57" x2="49" y2="36.57"/><line class="a" x1="62.86" y1="34.57" x2="49" y2="36.57"/></svg>