<svg xmlns="http://www.w3.org/2000/svg" width="98" height="109.75" viewBox="0 0 98 109.75"><defs><style>.a,.b,.c,.d{fill:none;stroke:#fff;}.a,.c{stroke-miterlimit:10;}.a{stroke-width:2px;}.b,.d{stroke-linecap:round;stroke-linejoin:round;}.b{stroke-dasharray:0 4;}.d{stroke-dasharray:0 3.98;}</style></defs><title>Anel de ouro branco 18K com brilhante</title><path class="a" d="M35.14,14.79a48,48,0,1,0,27.71,0"/><path class="a" d="M36.23,27l-1.08.49a36,36,0,1,0,27.71,0L61.77,27"/><path class="b" d="M62.85,21.08a42,42,0,1,1-27.71,0"/><path class="c" d="M49,35.51A13.87,13.87,0,0,1,35.14,21.65v-7.3a13.86,13.86,0,0,1,27.71,0v7.3A13.87,13.87,0,0,1,49,35.51Z"/><path class="c" d="M49,6.33a8,8,0,0,0-8,8v7.3a8,8,0,0,0,16,0v-7.3A8,8,0,0,0,49,6.33Z"/><path class="d" d="M49,3.42c-5.95,0-10.78,4.5-10.78,10v9.12c0,5.53,4.84,10,10.78,10s10.78-4.5,10.78-10V13.44C59.78,7.92,54.95,3.42,49,3.42Z"/><polygon class="c" points="45.18 24.55 49 26.75 52.82 24.55 52.82 11.46 49 9.25 45.18 11.46 45.18 24.55"/><line class="c" x1="45.18" y1="24.55" x2="42.26" y2="25.78"/><line class="c" x1="49" y1="26.76" x2="49" y2="29.67"/><line class="c" x1="55.74" y1="25.78" x2="52.82" y2="24.55"/><line class="c" x1="52.82" y1="11.46" x2="55.74" y2="10.22"/></svg>