<svg xmlns="http://www.w3.org/2000/svg" width="98" height="116.74" viewBox="0 0 98 116.74"><defs><style>.a,.b,.c{fill:none;stroke:#fff;}.a,.c{stroke-linecap:round;stroke-linejoin:round;}.b{stroke-miterlimit:10;stroke-width:2px;}.c{stroke-dasharray:0 4;}</style></defs><title>Anel de ouro branco 18K com esmeralda</title><circle class="a" cx="49" cy="18.5" r="18" transform="translate(13.16 56.69) rotate(-67.5)"/><polygon class="a" points="42.11 25.39 39.26 18.5 42.11 11.61 49 8.76 55.89 11.61 58.74 18.5 55.89 25.39 49 28.24 42.11 25.39"/><rect class="a" x="36.28" y="5.78" width="25.45" height="25.45" transform="translate(-3.35 20.16) rotate(-22.5)"/><rect class="a" x="36.28" y="5.78" width="25.45" height="25.45" transform="translate(13.16 56.69) rotate(-67.5)"/><line class="a" x1="39.26" y1="18.5" x2="35.23" y2="18.5"/><line class="a" x1="42.11" y1="11.61" x2="39.26" y2="8.76"/><line class="a" x1="49" y1="8.76" x2="49" y2="4.73"/><line class="a" x1="55.89" y1="11.61" x2="58.74" y2="8.76"/><line class="a" x1="58.74" y1="18.5" x2="62.77" y2="18.5"/><line class="a" x1="55.89" y1="25.39" x2="58.74" y2="28.24"/><line class="a" x1="49" y1="28.24" x2="49" y2="32.27"/><line class="a" x1="42.11" y1="25.39" x2="39.26" y2="28.24"/><path class="b" d="M64,22.14"/><path class="b" d="M38.79,33.32l-1.66.59a36,36,0,1,0,23.75,0l-1.66-.58"/><path class="c" d="M64,28.42A42.64,42.64,0,0,1,91,67.73,42,42,0,1,1,34,28.48"/><path class="b" d="M31.58,23a48,48,0,1,0,34.85,0"/></svg>