<svg xmlns="http://www.w3.org/2000/svg" width="127.35" height="116.85" viewBox="0 0 127.35 116.85"><defs><style>.a,.b,.c,.d{fill:none;stroke:#fff;stroke-linecap:round;stroke-linejoin:round;}.a{stroke-width:2px;}.c{stroke-width:4px;stroke-dasharray:0 14.51;}.d{stroke-dasharray:0 4;}</style></defs><title>Brinco de ouro branco 18K com turmalina</title><path class="a" d="M27.34,115.85A26.55,26.55,0,0,1,1,89.14v-.81c0-17.9,8.74-34,23.39-43a5.72,5.72,0,0,1,5.93,0C45.16,54.39,53.68,69.93,53.68,88v1.56A26.37,26.37,0,0,1,27.34,115.85Z"/><path class="b" d="M27.35,54.35C16.38,61.6,9.89,74,9.89,87.8v.76c0,9.65,8,17.8,17.45,17.8A17.47,17.47,0,0,0,44.79,88.91V87.45C44.79,73.56,38.45,61.56,27.35,54.35Z"/><line class="b" x1="27.34" y1="96.07" x2="27.34" y2="100.35"/><line class="b" x1="37.23" y1="94.64" x2="32.95" y2="92.83"/><line class="b" x1="32.95" y1="73.6" x2="37.23" y2="71.79"/><polygon class="b" points="37.23 71.79 27.34 66.07 17.44 71.79 17.44 94.64 27.34 100.35 37.23 94.64 37.23 71.79"/><polyline class="b" points="37.23 63.66 37.23 71.79 43.02 75.13"/><polyline class="b" points="35.45 61.39 27.34 66.07 19.33 61.45"/><polyline class="b" points="34.82 104.67 27.34 100.35 19.95 104.61"/><polygon class="b" points="21.73 92.82 27.34 96.06 32.95 92.82 32.95 73.6 27.34 70.36 21.73 73.6 21.73 92.82"/><line class="b" x1="17.44" y1="71.79" x2="21.73" y2="73.6"/><line class="b" x1="21.73" y1="92.82" x2="17.44" y2="94.64"/><line class="b" x1="43.02" y1="75.13" x2="37.23" y2="83.21"/><line class="b" x1="44.73" y1="90.31" x2="37.23" y2="83.21"/><polyline class="b" points="17.45 63.88 17.45 71.79 11.81 75.13"/><line class="b" x1="11.81" y1="75.13" x2="17.45" y2="83.21"/><line class="b" x1="9.98" y1="90.32" x2="17.45" y2="83.21"/><polyline class="b" points="37.23 103.27 37.23 94.64 44.73 90.31"/><polyline class="b" points="17.45 103.11 17.45 94.64 9.98 90.32"/><line class="b" x1="27.34" y1="70.36" x2="27.34" y2="54.35"/><line class="a" x1="27.33" y1="44.5" x2="27.33" y2="32"/><path class="a" d="M27.33,32A11.89,11.89,0,0,1,15.46,20.13V13.87a11.88,11.88,0,0,1,23.75,0v6.25A11.89,11.89,0,0,1,27.33,32Z"/><path class="c" d="M27.33,32A11.89,11.89,0,0,1,15.46,20.13V13.87a11.88,11.88,0,0,1,23.75,0v6.25A11.89,11.89,0,0,1,27.33,32Z"/><line class="b" x1="27.35" y1="50.11" x2="27.35" y2="50.11"/><path class="d" d="M24,52.37A45,45,0,0,0,5.38,89.3v.91c0,11.59,10.06,21.38,22,21.38,12.11,0,22-9.41,22-21V88.88c0-16-7.34-29-20.27-37.69"/><path class="a" d="M100,115.85A26.55,26.55,0,0,1,73.68,89.14v-.81c0-17.9,8.74-34,23.39-43a5.72,5.72,0,0,1,5.93,0c14.85,9.06,23.36,24.59,23.36,42.62v1.56A26.37,26.37,0,0,1,100,115.85Z"/><path class="b" d="M100,54.35C89.06,61.6,82.56,74,82.56,87.8v.76c0,9.65,8,17.8,17.45,17.8a17.47,17.47,0,0,0,17.45-17.45V87.45C117.46,73.56,111.12,61.56,100,54.35Z"/><line class="b" x1="100.01" y1="96.07" x2="100.01" y2="100.35"/><line class="b" x1="109.91" y1="94.64" x2="105.62" y2="92.83"/><line class="b" x1="105.62" y1="73.6" x2="109.91" y2="71.79"/><polygon class="b" points="109.91 71.79 100.01 66.07 90.12 71.79 90.12 94.64 100.01 100.35 109.91 94.64 109.91 71.79"/><polyline class="b" points="109.91 63.66 109.91 71.79 115.69 75.13"/><polyline class="b" points="108.12 61.39 100.01 66.07 92.01 61.45"/><polyline class="b" points="107.5 104.67 100.01 100.35 92.62 104.61"/><polygon class="b" points="94.4 92.82 100.01 96.06 105.62 92.82 105.62 73.6 100.01 70.36 94.4 73.6 94.4 92.82"/><line class="b" x1="90.12" y1="71.79" x2="94.4" y2="73.6"/><line class="b" x1="94.4" y1="92.82" x2="90.12" y2="94.64"/><line class="b" x1="115.69" y1="75.13" x2="109.91" y2="83.21"/><line class="b" x1="117.41" y1="90.31" x2="109.91" y2="83.21"/><polyline class="b" points="90.12 63.88 90.12 71.79 84.49 75.13"/><line class="b" x1="84.49" y1="75.13" x2="90.12" y2="83.21"/><line class="b" x1="82.65" y1="90.32" x2="90.12" y2="83.21"/><polyline class="b" points="109.91 103.27 109.91 94.64 117.41 90.31"/><polyline class="b" points="90.12 103.11 90.12 94.64 82.65 90.32"/><line class="b" x1="100.01" y1="70.36" x2="100.01" y2="54.35"/><line class="a" x1="100.01" y1="44.5" x2="100.01" y2="32"/><path class="a" d="M100,32A11.89,11.89,0,0,1,88.13,20.13V13.87a11.88,11.88,0,0,1,23.75,0v6.25A11.89,11.89,0,0,1,100,32Z"/><path class="c" d="M100,32A11.89,11.89,0,0,1,88.13,20.13V13.87a11.88,11.88,0,0,1,23.75,0v6.25A11.89,11.89,0,0,1,100,32Z"/><line class="b" x1="100.02" y1="50.11" x2="100.02" y2="50.11"/><path class="d" d="M96.72,52.37A45,45,0,0,0,78.05,89.3v.91c0,11.59,10.06,21.38,22,21.38,12.11,0,22-9.41,22-21V88.88c0-16-7.34-29-20.27-37.69"/></svg>