<svg xmlns="http://www.w3.org/2000/svg" width="174.01" height="98" viewBox="0 0 174.01 98"><defs><style>.a,.b,.c,.d{fill:none;stroke:#fff;}.a,.b{stroke-miterlimit:10;}.b{stroke-width:2px;}.c,.d{stroke-linecap:round;stroke-linejoin:round;}.c{stroke-dasharray:0 4.03;}.d{stroke-dasharray:0 3.99;}</style></defs><title>Brinco espeto de turmalina paraiÌba</title><line class="a" x1="39" y1="67" x2="39" y2="73"/><line class="a" x1="52.86" y1="65" x2="46.86" y2="62.47"/><line class="a" x1="46.86" y1="35.54" x2="52.86" y2="33"/><line class="a" x1="39" y1="31" x2="39" y2="25"/><path class="b" d="M39,97A38,38,0,0,1,1,59V39a38,38,0,0,1,76,0V59A38,38,0,0,1,39,97Z"/><path class="a" d="M39,17A22,22,0,0,0,17,39V59a22,22,0,0,0,44,0V39A22,22,0,0,0,39,17Z"/><path class="c" d="M39,91A32.27,32.27,0,0,1,6.76,58.76V39.23a32.24,32.24,0,0,1,64.48,0V58.76A32.27,32.27,0,0,1,39,91Z"/><path class="d" d="M39,11A27.76,27.76,0,0,0,11.26,38.72V59.27a27.74,27.74,0,0,0,55.47,0V38.72A27.76,27.76,0,0,0,39,11Z"/><polygon class="a" points="52.86 33 39 25 25.14 33 25.14 65 39 73 52.86 65 52.86 33"/><polyline class="a" points="52.86 21.92 52.86 33 60.96 37.68"/><polyline class="a" points="48.83 19.32 39 25 29.17 19.32"/><polyline class="a" points="52.86 76.07 52.86 65 60.96 60.32"/><polyline class="a" points="48.83 78.67 39 73 29.17 78.67"/><polygon class="a" points="31.14 62.46 39 67 46.86 62.46 46.86 35.53 39 31 31.14 35.53 31.14 62.46"/><line class="a" x1="25.14" y1="33" x2="31.14" y2="35.53"/><line class="a" x1="31.14" y1="62.46" x2="25.14" y2="65"/><line class="a" x1="60.96" y1="37.68" x2="52.86" y2="49"/><line class="a" x1="60.96" y1="60.31" x2="52.86" y2="49"/><polyline class="a" points="25.15 21.92 25.15 33 17.05 37.68"/><polyline class="a" points="25.15 76.07 25.15 65 17.05 60.32"/><line class="a" x1="17.05" y1="37.68" x2="25.15" y2="49"/><line class="a" x1="17.05" y1="60.31" x2="25.15" y2="49"/><line class="a" x1="135.01" y1="67" x2="135.01" y2="73"/><line class="a" x1="148.87" y1="65" x2="142.87" y2="62.47"/><line class="a" x1="142.87" y1="35.54" x2="148.87" y2="33"/><line class="a" x1="135.01" y1="31" x2="135.01" y2="25"/><path class="b" d="M135,97A38,38,0,0,1,97,59V39a38,38,0,0,1,76,0V59A38,38,0,0,1,135,97Z"/><path class="a" d="M135,17a22,22,0,0,0-22,22V59a22,22,0,0,0,44,0V39A22,22,0,0,0,135,17Z"/><path class="c" d="M135,91a32.27,32.27,0,0,1-32.24-32.23V39.23a32.24,32.24,0,0,1,64.48,0V58.76A32.27,32.27,0,0,1,135,91Z"/><path class="d" d="M135,11a27.76,27.76,0,0,0-27.74,27.73V59.27a27.74,27.74,0,0,0,55.47,0V38.72A27.76,27.76,0,0,0,135,11Z"/><polygon class="a" points="148.87 33 135.01 25 121.16 33 121.16 65 135.01 73 148.87 65 148.87 33"/><polyline class="a" points="148.87 21.92 148.87 33 156.97 37.68"/><polyline class="a" points="144.85 19.32 135.01 25 125.18 19.32"/><polyline class="a" points="148.87 76.07 148.87 65 156.97 60.32"/><polyline class="a" points="144.85 78.67 135.01 73 125.18 78.67"/><polygon class="a" points="127.16 62.46 135.01 67 142.87 62.46 142.87 35.53 135.01 31 127.16 35.53 127.16 62.46"/><line class="a" x1="121.16" y1="33" x2="127.16" y2="35.53"/><line class="a" x1="127.16" y1="62.46" x2="121.16" y2="65"/><line class="a" x1="156.97" y1="37.68" x2="148.87" y2="49"/><line class="a" x1="156.97" y1="60.31" x2="148.87" y2="49"/><polyline class="a" points="121.16 21.92 121.16 33 113.06 37.68"/><polyline class="a" points="121.16 76.07 121.16 65 113.06 60.32"/><line class="a" x1="113.06" y1="37.68" x2="121.16" y2="49"/><line class="a" x1="113.06" y1="60.31" x2="121.16" y2="49"/></svg>