<svg xmlns="http://www.w3.org/2000/svg" width="134.07" height="100.1" viewBox="0 0 134.07 100.1"><defs><style>.a,.b{fill:none;stroke:#fff;}.a{stroke-miterlimit:10;stroke-width:2px;}.b{stroke-linecap:round;stroke-linejoin:round;}</style></defs><title>Brinco Fascínio Especial</title><polygon class="a" points="20.6 17.71 17.74 10.82 20.6 3.94 27.48 1.08 34.37 3.94 37.22 10.82 34.37 17.71 27.48 20.56 20.6 17.71"/><line class="b" x1="27.48" y1="1.08" x2="27.48" y2="10.82"/><line class="b" x1="34.37" y1="3.94" x2="27.48" y2="10.82"/><line class="b" x1="37.22" y1="10.83" x2="27.48" y2="10.82"/><line class="b" x1="34.36" y1="17.71" x2="27.48" y2="10.82"/><line class="b" x1="27.47" y1="20.56" x2="27.48" y2="10.82"/><line class="b" x1="20.59" y1="17.7" x2="27.48" y2="10.82"/><line class="b" x1="17.74" y1="10.81" x2="27.48" y2="10.82"/><line class="b" x1="20.61" y1="3.92" x2="27.48" y2="10.82"/><polygon class="b" points="23.94 39.05 22.48 35.52 23.94 31.98 27.48 30.52 31.01 31.98 32.48 35.52 31.01 39.05 27.48 40.52 23.94 39.05"/><path class="b" d="M27.48,35.51"/><path class="b" d="M27.48,30.51"/><line class="b" x1="31.01" y1="31.98" x2="27.48" y2="35.51"/><path class="b" d="M27.48,35.51"/><path class="b" d="M32.48,35.52"/><line class="b" x1="31.01" y1="39.05" x2="27.48" y2="35.51"/><path class="b" d="M27.48,35.51"/><path class="b" d="M27.47,40.51"/><line class="b" x1="23.94" y1="39.05" x2="27.48" y2="35.51"/><path class="b" d="M27.48,35.51"/><path class="b" d="M22.48,35.51"/><line class="b" x1="23.95" y1="31.97" x2="27.48" y2="35.51"/><polygon class="b" points="23.94 59.06 22.48 55.53 23.94 51.99 27.48 50.53 31.01 51.99 32.48 55.53 31.01 59.06 27.48 60.53 23.94 59.06"/><path class="b" d="M27.48,55.53"/><path class="b" d="M27.48,50.53"/><line class="b" x1="31.01" y1="51.99" x2="27.48" y2="55.53"/><path class="b" d="M27.48,55.53"/><path class="b" d="M32.48,55.53"/><line class="b" x1="31.01" y1="59.06" x2="27.48" y2="55.53"/><path class="b" d="M27.48,55.53"/><path class="b" d="M27.47,60.53"/><line class="b" x1="23.94" y1="59.06" x2="27.48" y2="55.53"/><path class="b" d="M27.48,55.53"/><path class="b" d="M22.48,55.52"/><line class="b" x1="23.95" y1="51.99" x2="27.48" y2="55.53"/><polygon class="b" points="23.94 79.07 22.48 75.54 23.94 72 27.48 70.54 31.01 72 32.48 75.54 31.01 79.07 27.48 80.54 23.94 79.07"/><path class="b" d="M27.48,75.54"/><path class="b" d="M27.48,70.54"/><line class="b" x1="31.01" y1="72" x2="27.48" y2="75.54"/><path class="b" d="M27.48,75.54"/><path class="b" d="M32.48,75.54"/><line class="b" x1="31.01" y1="79.08" x2="27.48" y2="75.54"/><path class="b" d="M27.48,75.54"/><path class="b" d="M27.47,80.54"/><line class="b" x1="23.94" y1="79.07" x2="27.48" y2="75.54"/><path class="b" d="M27.48,75.54"/><path class="b" d="M22.48,75.53"/><line class="b" x1="23.95" y1="72" x2="27.48" y2="75.54"/><polygon class="b" points="7.29 69.07 5.82 65.53 7.29 62 10.82 60.53 14.36 62 15.82 65.53 14.36 69.07 10.82 70.53 7.29 69.07"/><path class="b" d="M10.82,65.53"/><path class="b" d="M10.82,60.53"/><line class="b" x1="14.36" y1="62" x2="10.82" y2="65.53"/><path class="b" d="M10.82,65.53"/><path class="b" d="M15.82,65.54"/><line class="b" x1="14.35" y1="69.07" x2="10.82" y2="65.53"/><path class="b" d="M10.82,65.53"/><path class="b" d="M10.82,70.53"/><line class="b" x1="7.28" y1="69.06" x2="10.82" y2="65.53"/><path class="b" d="M10.82,65.53"/><path class="b" d="M5.82,65.53"/><line class="b" x1="7.29" y1="61.99" x2="10.82" y2="65.53"/><polygon class="b" points="7.82 86.6 8.7 84.47 10.82 83.6 12.94 84.47 13.82 86.6 12.94 88.72 10.82 89.6 8.7 88.72 7.82 86.6"/><path class="b" d="M10.82,86.6"/><path class="b" d="M12.94,84.48"/><path class="b" d="M10.82,86.6"/><path class="b" d="M12.94,88.72"/><path class="b" d="M10.82,86.6"/><path class="b" d="M10.82,86.6"/><path class="b" d="M8.69,88.72"/><path class="b" d="M10.82,86.6"/><path class="b" d="M8.7,84.47"/><line class="b" x1="10.82" y1="83.6" x2="10.82" y2="86.6"/><polygon class="b" points="40.57 69.07 39.1 65.53 40.57 62 44.1 60.53 47.64 62 49.1 65.53 47.64 69.07 44.1 70.53 40.57 69.07"/><path class="b" d="M44.1,65.53"/><path class="b" d="M44.1,60.53"/><line class="b" x1="47.64" y1="62" x2="44.1" y2="65.53"/><path class="b" d="M44.1,65.53"/><path class="b" d="M49.1,65.54"/><line class="b" x1="47.64" y1="69.07" x2="44.1" y2="65.53"/><path class="b" d="M44.1,65.53"/><path class="b" d="M44.1,70.53"/><line class="b" x1="40.56" y1="69.06" x2="44.1" y2="65.53"/><path class="b" d="M44.1,65.53"/><path class="b" d="M39.1,65.53"/><line class="b" x1="40.57" y1="61.99" x2="44.1" y2="65.53"/><polygon class="b" points="7.29 49.06 5.82 45.52 7.29 41.98 10.82 40.52 14.36 41.98 15.82 45.52 14.36 49.06 10.82 50.52 7.29 49.06"/><path class="b" d="M10.82,45.52"/><path class="b" d="M10.82,40.52"/><line class="b" x1="14.36" y1="41.99" x2="10.82" y2="45.52"/><path class="b" d="M10.82,45.52"/><line class="b" x1="14.35" y1="49.06" x2="10.82" y2="45.52"/><path class="b" d="M10.82,45.52"/><path class="b" d="M10.82,50.52"/><line class="b" x1="7.28" y1="49.05" x2="10.82" y2="45.52"/><path class="b" d="M10.82,45.52"/><path class="b" d="M5.82,45.51"/><line class="b" x1="7.29" y1="41.98" x2="10.82" y2="45.52"/><polygon class="b" points="40.57 49.06 39.1 45.52 40.57 41.98 44.1 40.52 47.64 41.98 49.1 45.52 47.64 49.06 44.1 50.52 40.57 49.06"/><path class="b" d="M44.1,45.52"/><path class="b" d="M44.1,40.52"/><line class="b" x1="47.64" y1="41.99" x2="44.1" y2="45.52"/><path class="b" d="M44.1,45.52"/><path class="b" d="M49.1,45.52"/><line class="b" x1="47.64" y1="49.06" x2="44.1" y2="45.52"/><path class="b" d="M44.1,45.52"/><path class="b" d="M44.1,50.52"/><line class="b" x1="40.56" y1="49.05" x2="44.1" y2="45.52"/><path class="b" d="M44.1,45.52"/><path class="b" d="M39.1,45.51"/><line class="b" x1="40.57" y1="41.98" x2="44.1" y2="45.52"/><polygon class="a" points="37.22 24.61 34.37 17.72 37.22 10.83 44.1 7.98 50.99 10.83 53.84 17.72 50.99 24.61 44.1 27.46 37.22 24.61"/><line class="b" x1="44.1" y1="7.98" x2="44.1" y2="17.72"/><line class="b" x1="50.99" y1="10.83" x2="44.1" y2="17.72"/><line class="b" x1="53.84" y1="17.72" x2="44.1" y2="17.72"/><line class="b" x1="50.99" y1="24.61" x2="44.1" y2="17.72"/><line class="b" x1="44.1" y1="27.46" x2="44.1" y2="17.72"/><line class="b" x1="37.21" y1="24.6" x2="44.1" y2="17.72"/><line class="b" x1="34.37" y1="17.7" x2="44.1" y2="17.72"/><line class="b" x1="37.23" y1="10.82" x2="44.1" y2="17.72"/><polygon class="a" points="3.94 24.61 1.08 17.72 3.94 10.83 10.82 7.98 17.71 10.83 20.56 17.72 17.71 24.61 10.82 27.46 3.94 24.61"/><line class="b" x1="10.82" y1="7.98" x2="10.82" y2="17.72"/><line class="b" x1="17.71" y1="10.83" x2="10.82" y2="17.72"/><line class="b" x1="20.56" y1="17.72" x2="10.82" y2="17.72"/><line class="b" x1="17.7" y1="24.61" x2="10.82" y2="17.72"/><line class="b" x1="10.81" y1="27.46" x2="10.82" y2="17.72"/><line class="b" x1="3.93" y1="24.6" x2="10.82" y2="17.72"/><line class="b" x1="1.08" y1="17.7" x2="10.82" y2="17.72"/><line class="b" x1="3.95" y1="10.82" x2="10.82" y2="17.72"/><line class="b" x1="10.82" y1="27.46" x2="10.82" y2="40.52"/><line class="b" x1="10.82" y1="70.53" x2="10.82" y2="83.6"/><line class="b" x1="10.82" y1="50.52" x2="10.82" y2="60.53"/><polygon class="b" points="41.14 86.6 42.02 84.47 44.14 83.6 46.26 84.47 47.14 86.6 46.26 88.72 44.14 89.6 42.02 88.72 41.14 86.6"/><path class="b" d="M44.14,86.6"/><path class="b" d="M46.26,84.48"/><path class="b" d="M44.14,86.6"/><path class="b" d="M46.26,88.72"/><path class="b" d="M44.14,86.6"/><path class="b" d="M44.14,86.6"/><path class="b" d="M42,88.72"/><path class="b" d="M44.14,86.6"/><path class="b" d="M42,84.47"/><line class="b" x1="44.14" y1="83.6" x2="44.14" y2="86.6"/><line class="b" x1="44.14" y1="27.46" x2="44.14" y2="40.52"/><line class="b" x1="44.14" y1="70.53" x2="44.14" y2="83.6"/><line class="b" x1="44.14" y1="50.52" x2="44.14" y2="60.53"/><line class="b" x1="27.48" y1="20.5" x2="27.48" y2="30.59"/><polygon class="b" points="24.48 96.6 25.36 94.48 27.48 93.6 29.6 94.48 30.48 96.6 29.6 98.72 27.48 99.6 25.36 98.72 24.48 96.6"/><path class="b" d="M27.48,96.6"/><path class="b" d="M29.6,94.48"/><path class="b" d="M27.48,96.6"/><path class="b" d="M29.6,98.72"/><path class="b" d="M27.48,96.6"/><path class="b" d="M27.48,96.6"/><path class="b" d="M25.35,98.72"/><path class="b" d="M27.48,96.6"/><path class="b" d="M25.36,94.48"/><line class="b" x1="27.48" y1="93.6" x2="27.48" y2="96.6"/><line class="b" x1="27.48" y1="80.54" x2="27.48" y2="93.6"/><line class="b" x1="27.48" y1="40.51" x2="27.48" y2="50.52"/><line class="b" x1="27.48" y1="60.52" x2="27.48" y2="70.53"/><polygon class="a" points="99.75 17.71 96.89 10.82 99.75 3.94 106.63 1.08 113.52 3.94 116.37 10.82 113.52 17.71 106.63 20.56 99.75 17.71"/><line class="b" x1="106.63" y1="1.08" x2="106.63" y2="10.82"/><line class="b" x1="113.52" y1="3.94" x2="106.63" y2="10.82"/><line class="b" x1="116.37" y1="10.83" x2="106.63" y2="10.82"/><line class="b" x1="113.51" y1="17.71" x2="106.63" y2="10.82"/><line class="b" x1="106.62" y1="20.56" x2="106.63" y2="10.82"/><line class="b" x1="99.74" y1="17.7" x2="106.63" y2="10.82"/><line class="b" x1="96.89" y1="10.81" x2="106.63" y2="10.82"/><line class="b" x1="99.76" y1="3.92" x2="106.63" y2="10.82"/><polygon class="b" points="103.09 39.05 101.63 35.52 103.09 31.98 106.63 30.52 110.16 31.98 111.63 35.52 110.16 39.05 106.63 40.52 103.09 39.05"/><path class="b" d="M106.63,35.51"/><path class="b" d="M106.63,30.51"/><line class="b" x1="110.16" y1="31.98" x2="106.63" y2="35.51"/><path class="b" d="M106.63,35.51"/><path class="b" d="M111.63,35.52"/><line class="b" x1="110.16" y1="39.05" x2="106.63" y2="35.51"/><path class="b" d="M106.63,35.51"/><path class="b" d="M106.62,40.51"/><line class="b" x1="103.09" y1="39.05" x2="106.63" y2="35.51"/><path class="b" d="M106.63,35.51"/><path class="b" d="M101.63,35.51"/><line class="b" x1="103.1" y1="31.97" x2="106.63" y2="35.51"/><polygon class="b" points="103.09 59.06 101.63 55.53 103.09 51.99 106.63 50.53 110.16 51.99 111.63 55.53 110.16 59.06 106.63 60.53 103.09 59.06"/><path class="b" d="M106.63,55.53"/><path class="b" d="M106.63,50.53"/><line class="b" x1="110.16" y1="51.99" x2="106.63" y2="55.53"/><path class="b" d="M106.63,55.53"/><path class="b" d="M111.63,55.53"/><line class="b" x1="110.16" y1="59.06" x2="106.63" y2="55.53"/><path class="b" d="M106.63,55.53"/><path class="b" d="M106.62,60.53"/><line class="b" x1="103.09" y1="59.06" x2="106.63" y2="55.53"/><path class="b" d="M106.63,55.53"/><path class="b" d="M101.63,55.52"/><line class="b" x1="103.1" y1="51.99" x2="106.63" y2="55.53"/><polygon class="b" points="103.09 79.07 101.63 75.54 103.09 72 106.63 70.54 110.16 72 111.63 75.54 110.16 79.07 106.63 80.54 103.09 79.07"/><path class="b" d="M106.63,75.54"/><path class="b" d="M106.63,70.54"/><line class="b" x1="110.16" y1="72" x2="106.63" y2="75.54"/><path class="b" d="M106.63,75.54"/><path class="b" d="M111.63,75.54"/><line class="b" x1="110.16" y1="79.08" x2="106.63" y2="75.54"/><path class="b" d="M106.63,75.54"/><path class="b" d="M106.62,80.54"/><line class="b" x1="103.09" y1="79.07" x2="106.63" y2="75.54"/><path class="b" d="M106.63,75.54"/><path class="b" d="M101.63,75.53"/><line class="b" x1="103.1" y1="72" x2="106.63" y2="75.54"/><polygon class="b" points="86.44 69.07 84.97 65.53 86.44 62 89.97 60.53 93.51 62 94.97 65.53 93.51 69.07 89.97 70.53 86.44 69.07"/><path class="b" d="M90,65.53"/><path class="b" d="M90,60.53"/><line class="b" x1="93.51" y1="62" x2="89.97" y2="65.53"/><path class="b" d="M90,65.53"/><path class="b" d="M95,65.54"/><line class="b" x1="93.5" y1="69.07" x2="89.97" y2="65.53"/><path class="b" d="M90,65.53"/><path class="b" d="M90,70.53"/><line class="b" x1="86.43" y1="69.06" x2="89.97" y2="65.53"/><path class="b" d="M90,65.53"/><path class="b" d="M85,65.53"/><line class="b" x1="86.44" y1="61.99" x2="89.97" y2="65.53"/><polygon class="b" points="86.97 86.6 87.84 84.47 89.97 83.6 92.09 84.47 92.97 86.6 92.09 88.72 89.97 89.6 87.84 88.72 86.97 86.6"/><path class="b" d="M90,86.6"/><path class="b" d="M92.09,84.48"/><path class="b" d="M90,86.6"/><path class="b" d="M92.09,88.72"/><path class="b" d="M90,86.6"/><path class="b" d="M90,86.6"/><path class="b" d="M87.84,88.72"/><path class="b" d="M90,86.6"/><path class="b" d="M87.85,84.47"/><line class="b" x1="89.97" y1="83.6" x2="89.97" y2="86.6"/><polygon class="b" points="119.72 69.07 118.25 65.53 119.72 62 123.25 60.53 126.79 62 128.25 65.53 126.79 69.07 123.25 70.53 119.72 69.07"/><path class="b" d="M123.25,65.53"/><path class="b" d="M123.25,60.53"/><line class="b" x1="126.79" y1="62" x2="123.25" y2="65.53"/><path class="b" d="M123.25,65.53"/><path class="b" d="M128.25,65.54"/><line class="b" x1="126.79" y1="69.07" x2="123.25" y2="65.53"/><path class="b" d="M123.25,65.53"/><path class="b" d="M123.25,70.53"/><line class="b" x1="119.71" y1="69.06" x2="123.25" y2="65.53"/><path class="b" d="M123.25,65.53"/><path class="b" d="M118.25,65.53"/><line class="b" x1="119.72" y1="61.99" x2="123.25" y2="65.53"/><polygon class="b" points="86.44 49.06 84.97 45.52 86.44 41.98 89.97 40.52 93.51 41.98 94.97 45.52 93.51 49.06 89.97 50.52 86.44 49.06"/><path class="b" d="M90,45.52"/><path class="b" d="M90,40.52"/><line class="b" x1="93.51" y1="41.99" x2="89.97" y2="45.52"/><path class="b" d="M90,45.52"/><line class="b" x1="93.5" y1="49.06" x2="89.97" y2="45.52"/><path class="b" d="M90,45.52"/><path class="b" d="M90,50.52"/><line class="b" x1="86.43" y1="49.05" x2="89.97" y2="45.52"/><path class="b" d="M90,45.52"/><path class="b" d="M85,45.51"/><line class="b" x1="86.44" y1="41.98" x2="89.97" y2="45.52"/><polygon class="b" points="119.72 49.06 118.25 45.52 119.72 41.98 123.25 40.52 126.79 41.98 128.25 45.52 126.79 49.06 123.25 50.52 119.72 49.06"/><path class="b" d="M123.25,45.52"/><path class="b" d="M123.25,40.52"/><line class="b" x1="126.79" y1="41.99" x2="123.25" y2="45.52"/><path class="b" d="M123.25,45.52"/><path class="b" d="M128.25,45.52"/><line class="b" x1="126.79" y1="49.06" x2="123.25" y2="45.52"/><path class="b" d="M123.25,45.52"/><path class="b" d="M123.25,50.52"/><line class="b" x1="119.71" y1="49.05" x2="123.25" y2="45.52"/><path class="b" d="M123.25,45.52"/><path class="b" d="M118.25,45.51"/><line class="b" x1="119.72" y1="41.98" x2="123.25" y2="45.52"/><polygon class="a" points="116.37 24.61 113.51 17.72 116.37 10.83 123.25 7.98 130.14 10.83 132.99 17.72 130.14 24.61 123.25 27.46 116.37 24.61"/><line class="b" x1="123.25" y1="7.98" x2="123.25" y2="17.72"/><line class="b" x1="130.14" y1="10.83" x2="123.25" y2="17.72"/><line class="b" x1="132.99" y1="17.72" x2="123.25" y2="17.72"/><line class="b" x1="130.13" y1="24.61" x2="123.25" y2="17.72"/><line class="b" x1="123.24" y1="27.46" x2="123.25" y2="17.72"/><line class="b" x1="116.36" y1="24.6" x2="123.25" y2="17.72"/><line class="b" x1="113.51" y1="17.7" x2="123.25" y2="17.72"/><line class="b" x1="116.38" y1="10.82" x2="123.25" y2="17.72"/><polygon class="a" points="83.08 24.61 80.23 17.72 83.08 10.83 89.97 7.98 96.86 10.83 99.71 17.72 96.86 24.61 89.97 27.46 83.08 24.61"/><line class="b" x1="89.97" y1="7.98" x2="89.97" y2="17.72"/><line class="b" x1="96.86" y1="10.83" x2="89.97" y2="17.72"/><line class="b" x1="99.71" y1="17.72" x2="89.97" y2="17.72"/><line class="b" x1="96.85" y1="24.61" x2="89.97" y2="17.72"/><line class="b" x1="89.96" y1="27.46" x2="89.97" y2="17.72"/><line class="b" x1="83.08" y1="24.6" x2="89.97" y2="17.72"/><line class="b" x1="80.23" y1="17.7" x2="89.97" y2="17.72"/><line class="b" x1="83.09" y1="10.82" x2="89.97" y2="17.72"/><line class="b" x1="89.97" y1="27.46" x2="89.97" y2="40.52"/><line class="b" x1="89.97" y1="70.53" x2="89.97" y2="83.6"/><line class="b" x1="89.97" y1="50.52" x2="89.97" y2="60.53"/><polygon class="b" points="120.29 86.6 121.17 84.47 123.29 83.6 125.41 84.47 126.29 86.6 125.41 88.72 123.29 89.6 121.17 88.72 120.29 86.6"/><path class="b" d="M123.29,86.6"/><path class="b" d="M125.41,84.48"/><path class="b" d="M123.29,86.6"/><path class="b" d="M125.41,88.72"/><path class="b" d="M123.29,86.6"/><path class="b" d="M123.29,86.6"/><path class="b" d="M121.16,88.72"/><path class="b" d="M123.29,86.6"/><path class="b" d="M121.17,84.47"/><line class="b" x1="123.29" y1="83.6" x2="123.29" y2="86.6"/><line class="b" x1="123.29" y1="27.46" x2="123.29" y2="40.52"/><line class="b" x1="123.29" y1="70.53" x2="123.29" y2="83.6"/><line class="b" x1="123.29" y1="50.52" x2="123.29" y2="60.53"/><line class="b" x1="106.63" y1="20.5" x2="106.63" y2="30.59"/><polygon class="b" points="103.63 96.6 104.5 94.48 106.63 93.6 108.75 94.48 109.63 96.6 108.75 98.72 106.63 99.6 104.5 98.72 103.63 96.6"/><path class="b" d="M106.63,96.6"/><path class="b" d="M108.75,94.48"/><path class="b" d="M106.63,96.6"/><path class="b" d="M108.75,98.72"/><path class="b" d="M106.63,96.6"/><path class="b" d="M106.63,96.6"/><path class="b" d="M104.5,98.72"/><path class="b" d="M106.63,96.6"/><path class="b" d="M104.51,94.48"/><line class="b" x1="106.63" y1="93.6" x2="106.63" y2="96.6"/><line class="b" x1="106.63" y1="80.54" x2="106.63" y2="93.6"/><line class="b" x1="106.63" y1="40.51" x2="106.63" y2="50.52"/><line class="b" x1="106.63" y1="60.52" x2="106.63" y2="70.53"/></svg>