<svg xmlns="http://www.w3.org/2000/svg" width="162.04" height="98" viewBox="0 0 162.04 98"><defs><style>.a,.b,.c,.d,.e{fill:none;stroke:#fff;}.a{stroke-miterlimit:10;}.b,.c,.d,.e{stroke-linecap:round;stroke-linejoin:round;}.b{stroke-width:2px;}.d{stroke-dasharray:0 4.16;}.e{stroke-dasharray:0 4.16;}</style></defs><title>Brinco de ouro amarelo 18K com rubi</title><polygon class="a" points="59.11 30.66 36.01 17.33 12.91 30.66 12.91 67.33 36.01 80.67 59.11 67.33 59.11 30.66"/><polygon class="b" points="71.02 21.21 36.01 1 1 21.21 1 76.79 36.01 97 71.02 76.79 71.02 21.21"/><line class="c" x1="64.82" y1="26.13" x2="64.82" y2="26.13"/><line class="d" x1="61.22" y1="24.05" x2="37.81" y2="10.54"/><line class="c" x1="36.01" y1="9.5" x2="36.01" y2="9.5"/><line class="d" x1="32.41" y1="11.58" x2="9" y2="25.09"/><line class="c" x1="7.2" y1="26.13" x2="7.2" y2="26.13"/><line class="e" x1="7.2" y1="30.29" x2="7.2" y2="69.79"/><line class="c" x1="7.2" y1="71.87" x2="7.2" y2="71.87"/><line class="d" x1="10.8" y1="73.95" x2="34.21" y2="87.46"/><line class="c" x1="36.01" y1="88.5" x2="36.01" y2="88.5"/><line class="d" x1="39.61" y1="86.42" x2="63.02" y2="72.91"/><line class="c" x1="64.82" y1="71.87" x2="64.82" y2="71.87"/><line class="e" x1="64.82" y1="67.71" x2="64.82" y2="28.21"/><polygon class="a" points="22.91 63.1 36.01 70.66 49.11 63.1 49.11 34.89 36.01 27.33 22.91 34.89 22.91 63.1"/><line class="a" x1="36.01" y1="27.33" x2="36.01" y2="17.33"/><line class="a" x1="12.91" y1="30.67" x2="22.91" y2="34.89"/><line class="a" x1="22.91" y1="63.1" x2="12.91" y2="67.33"/><line class="a" x1="36.01" y1="70.67" x2="36.01" y2="80.67"/><line class="a" x1="59.11" y1="67.33" x2="49.11" y2="63.11"/><line class="a" x1="49.11" y1="34.9" x2="59.11" y2="30.67"/><line class="a" x1="12.91" y1="30.67" x2="22.91" y2="49"/><line class="a" x1="12.91" y1="67.33" x2="22.91" y2="49"/><line class="a" x1="12.91" y1="30.67" x2="36.01" y2="27.33"/><line class="a" x1="59.11" y1="30.67" x2="49.11" y2="49"/><line class="a" x1="59.11" y1="67.33" x2="49.11" y2="49"/><line class="a" x1="59.11" y1="30.67" x2="36.01" y2="27.33"/><line class="a" x1="12.91" y1="67.33" x2="36.01" y2="70.67"/><line class="a" x1="59.11" y1="67.33" x2="36.01" y2="70.67"/><polygon class="a" points="149.13 30.66 126.03 17.33 102.93 30.66 102.93 67.33 126.03 80.67 149.13 67.33 149.13 30.66"/><polygon class="b" points="161.04 21.21 126.03 1 91.02 21.21 91.02 76.79 126.03 97 161.04 76.79 161.04 21.21"/><line class="c" x1="154.84" y1="26.13" x2="154.84" y2="26.13"/><line class="d" x1="151.24" y1="24.05" x2="127.83" y2="10.54"/><line class="c" x1="126.03" y1="9.5" x2="126.03" y2="9.5"/><line class="d" x1="122.43" y1="11.58" x2="99.02" y2="25.09"/><line class="c" x1="97.22" y1="26.13" x2="97.22" y2="26.13"/><line class="e" x1="97.22" y1="30.29" x2="97.22" y2="69.79"/><line class="c" x1="97.22" y1="71.87" x2="97.22" y2="71.87"/><line class="d" x1="100.82" y1="73.95" x2="124.23" y2="87.46"/><line class="c" x1="126.03" y1="88.5" x2="126.03" y2="88.5"/><line class="d" x1="129.63" y1="86.42" x2="153.04" y2="72.91"/><line class="c" x1="154.84" y1="71.87" x2="154.84" y2="71.87"/><line class="e" x1="154.84" y1="67.71" x2="154.84" y2="28.21"/><polygon class="a" points="112.93 63.1 126.03 70.66 139.13 63.1 139.13 34.89 126.03 27.33 112.93 34.89 112.93 63.1"/><line class="a" x1="126.03" y1="27.33" x2="126.03" y2="17.33"/><line class="a" x1="102.93" y1="30.67" x2="112.93" y2="34.89"/><line class="a" x1="112.93" y1="63.1" x2="102.93" y2="67.33"/><line class="a" x1="126.03" y1="70.67" x2="126.03" y2="80.67"/><line class="a" x1="149.13" y1="67.33" x2="139.13" y2="63.11"/><line class="a" x1="139.13" y1="34.9" x2="149.13" y2="30.67"/><line class="a" x1="102.93" y1="30.67" x2="112.93" y2="49"/><line class="a" x1="102.93" y1="67.33" x2="112.93" y2="49"/><line class="a" x1="102.93" y1="30.67" x2="126.03" y2="27.33"/><line class="a" x1="149.13" y1="30.67" x2="139.13" y2="49"/><line class="a" x1="149.13" y1="67.33" x2="139.13" y2="49"/><line class="a" x1="149.13" y1="30.67" x2="126.03" y2="27.33"/><line class="a" x1="102.93" y1="67.33" x2="126.03" y2="70.67"/><line class="a" x1="149.13" y1="67.33" x2="126.03" y2="70.67"/></svg>