<svg xmlns="http://www.w3.org/2000/svg" width="86.59" height="110.92" viewBox="0 0 86.59 110.92"><defs><style>.a{fill:none;stroke:#fff;stroke-linecap:round;stroke-linejoin:round;}.b{fill:#fff;}</style></defs><title>Brinco Gaudi com diamantes</title><path class="a" d="M7,28.92c0,20,4.48,27.17,10,27.17s10-7.16,10-27.17"/><path class="a" d="M7,28.92c0,25,4.48,36.22,10,36.22S27,53.92,27,28.92"/><path class="a" d="M7,28.92c0,30,4.48,45.28,10,45.28S27,58.92,27,28.92"/><path class="a" d="M7,28.92c0,35,4.48,54.33,10,54.33S27,63.92,27,28.92"/><path class="a" d="M7,28.92c0,40,4.48,63.39,10,63.39S27,68.93,27,28.92"/><path class="a" d="M7,28.92c0,45,4.48,72.45,10,72.45S27,73.93,27,28.92"/><path class="a" d="M7,28.92c0,50,4.48,81.5,10,81.5s10-31.49,10-81.5"/><path class="b" d="M17,2A15,15,0,1,1,3.15,11.26,14.95,14.95,0,0,1,17,2m0-2h0a17,17,0,1,0,6.5,1.3A17,17,0,0,0,17,0Z"/><polygon class="a" points="11.27 22.74 8.89 17 11.27 11.26 17 8.88 22.74 11.26 25.12 17 22.74 22.74 17 25.12 11.27 22.74"/><rect class="a" x="6.4" y="6.4" width="21.21" height="21.21" transform="translate(-5.21 7.8) rotate(-22.5)"/><rect class="a" x="6.4" y="6.4" width="21.21" height="21.21" transform="translate(-5.21 26.21) rotate(-67.5)"/><line class="a" x1="8.89" y1="17" x2="5.53" y2="17"/><line class="a" x1="11.27" y1="11.26" x2="8.89" y2="8.88"/><line class="a" x1="17.01" y1="8.88" x2="17.01" y2="5.52"/><line class="a" x1="22.74" y1="11.26" x2="25.12" y2="8.88"/><line class="a" x1="25.12" y1="17" x2="28.48" y2="17"/><line class="a" x1="22.74" y1="22.74" x2="25.12" y2="25.12"/><line class="a" x1="17.01" y1="25.12" x2="17.01" y2="28.48"/><line class="a" x1="11.27" y1="22.74" x2="8.89" y2="25.12"/><path class="a" d="M59.59,28.92c0,20,4.48,27.17,10,27.17s10-7.16,10-27.17"/><path class="a" d="M59.59,28.92c0,25,4.48,36.22,10,36.22s10-11.22,10-36.22"/><path class="a" d="M59.59,28.92c0,30,4.48,45.28,10,45.28s10-15.27,10-45.28"/><path class="a" d="M59.59,28.92c0,35,4.48,54.33,10,54.33s10-19.33,10-54.33"/><path class="a" d="M59.59,28.92c0,40,4.48,63.39,10,63.39s10-23.38,10-63.39"/><path class="a" d="M59.59,28.92c0,45,4.48,72.45,10,72.45s10-27.43,10-72.45"/><path class="a" d="M59.59,28.92c0,50,4.48,81.5,10,81.5s10-31.49,10-81.5"/><path class="b" d="M69.6,2a15,15,0,1,1-13.86,9.26A14.95,14.95,0,0,1,69.6,2m0-2h0a17,17,0,1,0,6.5,1.3A17,17,0,0,0,69.6,0Z"/><polygon class="a" points="63.85 22.74 61.48 17 63.85 11.26 69.59 8.88 75.33 11.26 77.71 17 75.33 22.74 69.59 25.12 63.85 22.74"/><rect class="a" x="58.99" y="6.4" width="21.21" height="21.21" transform="translate(-1.21 27.93) rotate(-22.5)"/><rect class="a" x="58.99" y="6.4" width="21.21" height="21.21" transform="translate(27.25 74.79) rotate(-67.5)"/><line class="a" x1="61.48" y1="17" x2="58.11" y2="17"/><line class="a" x1="63.85" y1="11.26" x2="61.48" y2="8.88"/><line class="a" x1="69.59" y1="8.88" x2="69.59" y2="5.52"/><line class="a" x1="75.33" y1="11.26" x2="77.71" y2="8.88"/><line class="a" x1="77.71" y1="17" x2="81.07" y2="17"/><line class="a" x1="75.33" y1="22.74" x2="77.71" y2="25.12"/><line class="a" x1="69.59" y1="25.12" x2="69.59" y2="28.48"/><line class="a" x1="63.85" y1="22.74" x2="61.48" y2="25.12"/></svg>