<svg xmlns="http://www.w3.org/2000/svg" width="82.95" height="110.92" viewBox="0 0 82.95 110.92"><defs><style>.a,.b,.c{fill:none;stroke:#fff;stroke-linecap:round;stroke-linejoin:round;}.a{stroke-width:2px;}.c{stroke-width:3px;stroke-dasharray:0 17;}</style></defs><title>Colar de ouro nobre</title><line class="a" x1="41.5" y1="37.07" x2="41.5" y2="33.84"/><circle class="a" cx="41.5" cy="31.84" r="2"/><line class="b" x1="81.45" y1="1.5" x2="43.08" y2="30.63"/><line class="c" x1="81.45" y1="1.5" x2="43.08" y2="30.63"/><line class="b" x1="1.5" y1="1.5" x2="39.92" y2="30.63"/><line class="c" x1="1.5" y1="1.5" x2="39.92" y2="30.63"/><polygon class="b" points="36.22 77.37 34.04 72.1 36.22 66.82 41.5 64.64 46.78 66.82 48.96 72.1 46.78 77.37 41.5 79.56 36.22 77.37"/><rect class="b" x="31.75" y="62.35" width="19.5" height="19.5" transform="translate(-24.43 21.37) rotate(-22.5)"/><rect class="b" x="31.75" y="62.35" width="19.5" height="19.5" transform="matrix(0.38, -0.92, 0.92, 0.38, -40.99, 82.85)"/><line class="b" x1="34.04" y1="72.1" x2="30.95" y2="72.1"/><line class="b" x1="36.22" y1="66.82" x2="34.04" y2="64.64"/><line class="b" x1="41.5" y1="64.63" x2="41.5" y2="61.54"/><line class="b" x1="46.78" y1="66.82" x2="48.96" y2="64.64"/><line class="b" x1="48.96" y1="72.1" x2="52.05" y2="72.1"/><line class="b" x1="46.78" y1="77.37" x2="48.96" y2="79.56"/><line class="b" x1="41.5" y1="79.56" x2="41.5" y2="82.65"/><line class="b" x1="36.22" y1="77.37" x2="34.04" y2="79.56"/><polyline class="b" points="48.96 64.64 41.5 46.1 34.04 64.64"/><polyline class="b" points="52.05 72.1 59.88 53.71 41.5 61.55"/><polyline class="b" points="48.96 79.56 67.5 72.1 48.96 64.64"/><polyline class="b" points="41.5 82.65 59.88 90.48 52.05 72.1"/><polyline class="b" points="34.04 79.56 41.5 98.1 48.96 79.56"/><polyline class="b" points="30.95 72.1 23.11 90.48 41.5 82.65"/><polyline class="b" points="34.04 64.64 15.5 72.1 34.04 79.56"/><polyline class="b" points="41.5 61.55 23.11 53.71 30.95 72.1"/><path class="a" d="M60.14,79.82,79.32,72.1,60.14,64.38l8.1-19-19,8.1L41.5,34.28,33.78,53.46l-19-8.1,8.1,19L3.68,72.1l19.18,7.72-8.1,19,19-8.1,7.72,19.18,7.72-19.18,19,8.1Z"/></svg>