<svg xmlns="http://www.w3.org/2000/svg" width="82.95" height="109.41" viewBox="0 0 82.95 109.41"><defs><style>.a,.b,.c{fill:none;stroke:#fff;stroke-linecap:round;stroke-linejoin:round;}.a{stroke-width:2px;}.c{stroke-width:3px;stroke-dasharray:0 17;}</style></defs><title>Colar Blue Paradise com turmalina</title><path class="a" d="M41.51,108.41A26.55,26.55,0,0,1,15.17,81.71v-.81c0-17.9,8.74-34,23.39-43a5.72,5.72,0,0,1,5.93,0C59.33,47,67.84,62.49,67.84,80.52v1.56A26.37,26.37,0,0,1,41.51,108.41Z"/><path class="b" d="M41.51,45.07c-11.74,7.76-18.7,21-18.7,35.82v.81c0,10.33,8.56,19.06,18.69,19.06A18.71,18.71,0,0,0,60.2,82.08V80.52C60.2,65.64,53.4,52.79,41.51,45.07Z"/><line class="b" x1="41.51" y1="89.75" x2="41.51" y2="94.34"/><line class="b" x1="52.1" y1="88.22" x2="47.51" y2="86.28"/><line class="b" x1="47.51" y1="65.69" x2="52.1" y2="63.74"/><polygon class="b" points="52.1 63.74 41.51 57.63 30.91 63.74 30.91 88.22 41.51 94.34 52.1 88.22 52.1 63.74"/><polyline class="b" points="52.1 55.04 52.1 63.74 58.3 67.32"/><polyline class="b" points="50.19 52.61 41.51 57.63 32.93 52.67"/><polyline class="b" points="49.52 98.96 41.51 94.33 33.59 98.9"/><polygon class="b" points="35.5 86.28 41.51 89.74 47.51 86.28 47.51 65.68 41.51 62.21 35.5 65.68 35.5 86.28"/><line class="b" x1="30.91" y1="63.74" x2="35.5" y2="65.68"/><line class="b" x1="35.5" y1="86.27" x2="30.91" y2="88.22"/><line class="b" x1="58.3" y1="67.32" x2="52.1" y2="75.98"/><line class="b" x1="60.14" y1="83.58" x2="52.1" y2="75.98"/><polyline class="b" points="30.91 55.27 30.91 63.74 24.88 67.32"/><line class="b" x1="24.87" y1="67.32" x2="30.91" y2="75.98"/><line class="b" x1="22.91" y1="83.6" x2="30.91" y2="75.98"/><polyline class="b" points="52.1 97.46 52.1 88.22 60.13 83.58"/><polyline class="b" points="30.91 97.3 30.91 88.22 22.91 83.6"/><line class="b" x1="41.51" y1="62.21" x2="41.51" y2="45.07"/><line class="a" x1="41.5" y1="37.07" x2="41.5" y2="33.84"/><circle class="a" cx="41.5" cy="31.84" r="2"/><line class="b" x1="81.45" y1="1.5" x2="43.08" y2="30.63"/><line class="c" x1="81.45" y1="1.5" x2="43.08" y2="30.63"/><line class="b" x1="1.5" y1="1.5" x2="39.92" y2="30.63"/><line class="c" x1="1.5" y1="1.5" x2="39.92" y2="30.63"/></svg>